# xmcd
#
# Track frame offsets: 
#        151
#        23026
#        45750
#        57768
#        72754
#        96624
#        105393
#        121097
#        136982
#        153368
#        171147
#        182232
#        197826
#        213937
#        224529
#        238185
#        251174
#        266571
#        278426
#        292341
#        306403
#        320438
#
# Disc length: 4402 seconds
#
# Revision: 0
# Processed by: cddbd v1.5.1PL0 Copyright (c) Steve Scherf et al.
# Submitted via: ExactAudioCopy v0.95a5
#
DISCID=49113016
DTITLE=King, B.B. - Legends
DYEAR=2002
DGENRE=Modern Electric Blues
TTITLE0=Everyday I Have The Blues
TTITLE1=The Thrill Is Gone
TTITLE2=Paying The Cost To Be The Boss
TTITLE3=B.B. Boogie
TTITLE4=You've Done Lost Your Good Thing Now
TTITLE5=A New Way Of Driving
TTITLE6=Walkin' And Cryin'
TTITLE7=The Letter
TTITLE8=It's My Own Fault
TTITLE9=That Evil Child
TTITLE10=Catfish Blues
TTITLE11=How Blue Can You Get?
TTITLE12=Long Nights
TTITLE13=I'm Willing To Run All The Way
TTITLE14=Army Of The Lord
TTITLE15=I'm Working On The Building
TTITLE16=Precious Lord
TTITLE17=I Never Heard A Man
TTITLE18=Servant's Prayer
TTITLE19=Save A Seat For Me
TTITLE20=Jesus Gave Me Water
TTITLE21=Swing Low Sweet Chariot - Rock Me Lord
EXTD=
EXTT0=
EXTT1=
EXTT2=
EXTT3=
EXTT4=
EXTT5=
EXTT6=
EXTT7=
EXTT8=
EXTT9=
EXTT10=
EXTT11=
EXTT12=
EXTT13=
EXTT14=
EXTT15=
EXTT16=
EXTT17=
EXTT18=
EXTT19=
EXTT20=
EXTT21=
PLAYORDER=
